<?xml version="1.0" encoding="utf-8"?>
<!-- Generator: Adobe Illustrator 16.0.0, SVG Export Plug-In . SVG Version: 6.00 Build 0)  -->
<!DOCTYPE svg PUBLIC "-//W3C//DTD SVG 1.1//EN" "http://www.w3.org/Graphics/SVG/1.1/DTD/svg11.dtd">
<svg version="1.1" id="Calque_1" xmlns="http://www.w3.org/2000/svg" xmlns:xlink="http://www.w3.org/1999/xlink" x="0px" y="0px"
	 width="54px" height="54px" viewBox="0 0 54 54" enable-background="new 0 0 54 54" xml:space="preserve">
<g>
	<path fill="#FFFFFF" d="M52,10.274c0-4.378-3.954-8.333-8.333-8.333H10.333C5.953,1.94,2,5.896,2,10.274v33.333
		c0,4.38,3.953,8.334,8.333,8.334H27V33.052h-6.112v-8.333H27v-3.247c0-5.601,4.204-10.642,9.375-10.642h6.735v8.333h-6.735
		c-0.738,0-1.599,0.896-1.599,2.236v3.32h8.333v8.333h-8.333V51.94h8.89c4.38,0,8.333-3.954,8.333-8.334V10.274z M52,10.274"/>
</g>
<g>
	<path d="M116.242,45.639c-1.838-1.839-4.053-2.758-6.639-2.758H78.276c-2.587,0-4.801,0.919-6.639,2.758
		c-1.839,1.838-2.757,4.053-2.757,6.639v31.327c0,2.587,0.918,4.8,2.757,6.639C73.475,92.081,75.689,93,78.276,93h31.328
		c2.586,0,4.801-0.919,6.639-2.757c1.838-1.839,2.758-4.052,2.758-6.639V52.277C119,49.691,118.08,47.477,116.242,45.639
		L116.242,45.639z M107.221,62.166c0.021,0.194,0.031,0.486,0.031,0.881c0,1.827-0.266,3.661-0.799,5.496
		c-0.533,1.839-1.35,3.602-2.447,5.29c-1.098,1.685-2.41,3.176-3.932,4.467c-1.523,1.296-3.35,2.331-5.48,3.1
		c-2.132,0.774-4.418,1.159-6.853,1.159c-3.785,0-7.288-1.021-10.508-3.066c0.522,0.065,1.065,0.102,1.631,0.102
		c3.155,0,5.995-0.982,8.519-2.94c-1.48-0.021-2.802-0.479-3.965-1.37c-1.164-0.893-1.974-2.024-2.432-3.395
		c0.565,0.089,0.99,0.13,1.273,0.13c0.477,0,1.032-0.087,1.662-0.259c-1.587-0.306-2.926-1.095-4.013-2.367
		c-1.088-1.271-1.631-2.724-1.631-4.354v-0.065c1.152,0.541,2.239,0.826,3.262,0.848c-1.979-1.328-2.969-3.23-2.969-5.71
		c0-1.219,0.314-2.372,0.947-3.46c1.717,2.111,3.808,3.797,6.263,5.06c2.458,1.26,5.091,1.967,7.896,2.12
		c-0.107-0.414-0.161-0.936-0.161-1.568c0-1.893,0.669-3.506,2.005-4.844c1.338-1.338,2.953-2.008,4.848-2.008
		c2,0,3.664,0.719,4.99,2.157c1.502-0.285,2.961-0.841,4.373-1.665c-0.543,1.672-1.555,2.945-3.033,3.815
		c1.412-0.197,2.729-0.566,3.947-1.11C109.732,60,108.59,61.188,107.221,62.166L107.221,62.166z M107.221,62.166"/>
</g>
<g>
	<path d="M97.58,85.491c-1.844-1.845-4.064-2.767-6.66-2.767H59.496c-2.594,0-4.814,0.922-6.66,2.767
		c-1.844,1.843-2.766,4.063-2.766,6.659v31.423c0,2.596,0.922,4.817,2.766,6.661c1.846,1.844,4.066,2.766,6.66,2.766H90.92
		c2.596,0,4.816-0.922,6.66-2.766s2.766-4.065,2.766-6.661V92.15C100.346,89.555,99.424,87.334,97.58,85.491L97.58,85.491z
		 M79.758,89.99h2.193v8.902c0,0.523,0.01,0.809,0.031,0.852c0.023,0.35,0.199,0.523,0.525,0.523c0.436,0,0.895-0.337,1.375-1.014
		V89.99h2.191v12.112h-2.191v-1.312c-0.896,0.982-1.734,1.474-2.521,1.474c-0.695,0-1.166-0.294-1.406-0.883
		c-0.131-0.394-0.197-0.994-0.197-1.801V89.99z M71.479,93.918c0-1.265,0.227-2.214,0.686-2.846c0.59-0.83,1.441-1.244,2.553-1.244
		c1.07,0,1.92,0.414,2.555,1.244c0.457,0.632,0.686,1.581,0.686,2.846v4.256c0,1.309-0.229,2.258-0.686,2.846
		c-0.635,0.832-1.484,1.245-2.555,1.245c-1.111,0-1.963-0.413-2.553-1.245c-0.459-0.631-0.686-1.58-0.686-2.846V93.918z
		 M65.586,85.834l1.734,6.383l1.668-6.383h2.457l-2.947,9.688v6.581h-2.422v-6.581c-0.238-1.199-0.742-2.924-1.504-5.169
		c-0.502-1.508-0.754-2.261-0.754-2.261l-0.787-2.258H65.586z M92.557,125.341c-0.219,0.938-0.682,1.735-1.391,2.391
		c-0.709,0.654-1.533,1.034-2.473,1.146c-2.988,0.327-7.484,0.49-13.484,0.49s-10.496-0.163-13.486-0.49
		c-0.938-0.111-1.762-0.491-2.469-1.146c-0.711-0.655-1.174-1.452-1.391-2.391c-0.438-1.834-0.656-4.671-0.656-8.511
		c0-3.774,0.219-6.611,0.656-8.51c0.217-0.96,0.68-1.761,1.391-2.406c0.707-0.645,1.543-1.021,2.502-1.129
		c2.969-0.328,7.453-0.492,13.453-0.492c6.023,0,10.52,0.164,13.484,0.492c0.939,0.107,1.768,0.484,2.488,1.129
		c0.719,0.646,1.189,1.445,1.408,2.406c0.414,1.812,0.621,4.646,0.621,8.51C93.211,120.67,92.994,123.507,92.557,125.341
		L92.557,125.341z M92.557,125.341"/>
	<path d="M59.891,110.776h2.553v13.846h2.422v-13.846h2.619v-2.292h-7.594V110.776z M59.891,110.776"/>
	<path d="M71.871,121.772c-0.48,0.677-0.939,1.015-1.375,1.015c-0.307,0-0.471-0.163-0.49-0.49
		c-0.025-0.043-0.035-0.328-0.035-0.852v-8.837h-2.158v9.491c0,0.829,0.064,1.42,0.195,1.766c0.195,0.614,0.656,0.92,1.375,0.92
		c0.807,0,1.637-0.492,2.488-1.474v1.308h2.189v-12.011h-2.189V121.772z M71.871,121.772"/>
	<path d="M80.35,112.443c-0.787,0-1.529,0.438-2.227,1.311v-5.27H75.93v16.138h2.193v-1.18c0.719,0.895,1.461,1.343,2.227,1.343
		c0.895,0,1.471-0.46,1.73-1.376c0.154-0.458,0.23-1.254,0.23-2.39v-4.778c0-1.156-0.076-1.963-0.23-2.423
		C81.82,112.902,81.244,112.443,80.35,112.443L80.35,112.443z M80.15,121.186c0,1.068-0.314,1.602-0.949,1.602
		c-0.371,0-0.729-0.174-1.078-0.523v-7.333c0.35-0.347,0.707-0.521,1.078-0.521c0.635,0,0.949,0.542,0.949,1.637V121.186z
		 M80.15,121.186"/>
	<path d="M88.301,121.167c0,0.229-0.006,0.41-0.018,0.542c-0.01,0.129-0.016,0.205-0.016,0.229c-0.131,0.564-0.457,0.85-0.982,0.85
		c-0.742,0-1.111-0.556-1.111-1.668v-2.128h4.352v-2.489c0-1.266-0.227-2.203-0.686-2.814c-0.59-0.828-1.439-1.244-2.555-1.244
		c-1.111,0-1.984,0.416-2.617,1.244c-0.438,0.591-0.654,1.528-0.654,2.814v4.224c0,1.287,0.229,2.228,0.688,2.815
		c0.633,0.829,1.516,1.244,2.65,1.244c1.158,0,2.029-0.438,2.619-1.31c0.262-0.394,0.426-0.829,0.49-1.31
		c0.045-0.307,0.066-0.775,0.066-1.407v-0.294h-2.227V121.167z M86.174,116.077c0-1.112,0.359-1.668,1.08-1.668
		s1.08,0.556,1.08,1.668v1.113h-2.16V116.077z M86.174,116.077"/>
	<path d="M74.717,100.268c0.699,0,1.047-0.556,1.047-1.669v-5.106c0-1.135-0.348-1.701-1.047-1.701
		c-0.697,0-1.047,0.566-1.047,1.701v5.106C73.67,99.712,74.02,100.268,74.717,100.268L74.717,100.268z M74.717,100.268"/>
</g>
<rect x="25" y="-95" width="54" height="54"/>
</svg>
