<?xml version="1.0" encoding="utf-8"?>
<!-- Generator: Adobe Illustrator 16.0.0, SVG Export Plug-In . SVG Version: 6.00 Build 0)  -->
<!DOCTYPE svg PUBLIC "-//W3C//DTD SVG 1.1//EN" "http://www.w3.org/Graphics/SVG/1.1/DTD/svg11.dtd">
<svg version="1.1" xmlns="http://www.w3.org/2000/svg" xmlns:xlink="http://www.w3.org/1999/xlink" x="0px" y="0px" width="50px"
	 height="50px" viewBox="0 0 50 50" enable-background="new 0 0 50 50" xml:space="preserve">
<g id="Footer">
	<path fill="#FFFFFF" d="M31.73,36.077c-0.925,0-2.038-0.232-3.26-0.695c-2.686-1.011-5.603-3.008-8.222-5.627
		c-2.619-2.619-4.621-5.541-5.631-8.223c-0.921-2.441-0.921-4.446-0.004-5.362c0.131-0.131,0.265-0.272,0.403-0.419
		c0.837-0.88,1.784-1.869,3.035-1.826c0.864,0.037,1.702,0.575,2.557,1.642c2.533,3.146,1.39,4.271,0.069,5.569l-0.232,0.233
		c-0.215,0.214-0.626,1.214,3.176,5.013c1.236,1.24,2.295,2.146,3.14,2.697c0.531,0.345,1.484,0.867,1.873,0.479l0.236-0.236
		c1.298-1.32,2.42-2.454,5.566,0.074c1.066,0.857,1.604,1.69,1.637,2.558c0.052,1.25-0.945,2.199-1.825,3.036
		c-0.146,0.139-0.289,0.273-0.419,0.404C33.373,35.849,32.646,36.077,31.73,36.077L31.73,36.077z M17.963,14.672
		c-0.892,0-1.694,0.844-2.408,1.593c-0.142,0.153-0.28,0.298-0.419,0.433c-0.681,0.684-0.61,2.478,0.179,4.573
		c0.975,2.587,2.914,5.413,5.46,7.956c2.548,2.547,5.37,4.485,7.957,5.461c2.096,0.789,3.89,0.858,4.569,0.175
		c0.139-0.135,0.284-0.272,0.434-0.414c0.766-0.729,1.633-1.555,1.597-2.468c-0.025-0.629-0.484-1.302-1.36-2.008
		c-2.62-2.106-3.354-1.364-4.569-0.131l-0.24,0.239c-0.582,0.583-1.524,0.455-2.805-0.378c-0.892-0.577-1.987-1.521-3.265-2.794
		c-3.153-3.153-4.161-5.082-3.175-6.072l0.24-0.232c1.237-1.215,1.983-1.95-0.127-4.572c-0.705-0.877-1.383-1.336-2.009-1.36
		C17.999,14.672,17.981,14.672,17.963,14.672L17.963,14.672z M17.963,14.672"/>
</g>
<g id="Header1">
</g>
<g id="Header2">
</g>
<g id="Header3">
</g>
<g id="Header4">
</g>
<g id="Header_Elements">
</g>
<g id="Main_-_PageTarifs">
</g>
<g id="Main_-_PageParcours2">
</g>
<g id="Main_-_PageParcours">
</g>
<g id="Main_-_HomePage">
</g>
<g id="Bandeau_alerte">
</g>
<g id="Logo_blanc" display="none">
</g>
<g id="Logo_couleurs">
</g>
<g id="Repères" display="none">
</g>
</svg>
