<?xml version="1.0" encoding="utf-8"?>
<!-- Generator: Adobe Illustrator 16.0.0, SVG Export Plug-In . SVG Version: 6.00 Build 0)  -->
<!DOCTYPE svg PUBLIC "-//W3C//DTD SVG 1.1//EN" "http://www.w3.org/Graphics/SVG/1.1/DTD/svg11.dtd">
<svg version="1.1" id="Calque_1" xmlns="http://www.w3.org/2000/svg" xmlns:xlink="http://www.w3.org/1999/xlink" x="0px" y="0px"
	 width="54px" height="54px" viewBox="0 0 54 54" enable-background="new 0 0 54 54" xml:space="preserve">
<g>
	<path fill="#FFFFFF" d="M49.249,4.692c-1.833-1.834-4.043-2.751-6.622-2.751H11.374c-2.581,0-4.79,0.917-6.623,2.751
		C2.916,6.525,2,8.734,2,11.314v31.253c0,2.581,0.916,4.788,2.75,6.623c1.833,1.833,4.042,2.75,6.623,2.75h31.253
		c2.579,0,4.789-0.917,6.622-2.75C51.083,47.355,52,45.148,52,42.567V11.314C52,8.734,51.083,6.525,49.249,4.692L49.249,4.692z
		 M40.25,21.18c0.021,0.194,0.03,0.485,0.03,0.879c0,1.822-0.265,3.652-0.797,5.483c-0.532,1.834-1.346,3.593-2.441,5.277
		c-1.095,1.681-2.404,3.168-3.922,4.456c-1.52,1.293-3.342,2.325-5.467,3.092c-2.127,0.772-4.408,1.156-6.837,1.156
		c-3.776,0-7.271-1.019-10.482-3.059c0.521,0.065,1.063,0.102,1.627,0.102c3.147,0,5.98-0.98,8.498-2.934
		c-1.477-0.021-2.795-0.479-3.956-1.367c-1.161-0.891-1.969-2.02-2.426-3.387c0.564,0.089,0.988,0.13,1.271,0.13
		c0.476,0,1.03-0.087,1.658-0.258c-1.583-0.306-2.919-1.093-4.003-2.362c-1.085-1.268-1.627-2.717-1.627-4.344v-0.065
		c1.149,0.54,2.234,0.824,3.254,0.846c-1.974-1.325-2.962-3.223-2.962-5.696c0-1.216,0.314-2.366,0.945-3.452
		c1.712,2.106,3.798,3.788,6.248,5.048c2.452,1.257,5.079,1.962,7.877,2.115c-0.107-0.413-0.161-0.934-0.161-1.564
		c0-1.889,0.668-3.498,2-4.832c1.335-1.335,2.946-2.003,4.836-2.003c1.995,0,3.655,0.717,4.978,2.151
		c1.498-0.284,2.954-0.839,4.362-1.661c-0.541,1.668-1.551,2.938-3.025,3.807c1.408-0.197,2.722-0.565,3.938-1.107
		C42.754,19.019,41.615,20.203,40.25,21.18L40.25,21.18z M40.25,21.18"/>
</g>
<g>
	<path d="M97.58,85.491c-1.844-1.845-4.064-2.767-6.66-2.767H59.496c-2.594,0-4.814,0.922-6.66,2.767
		c-1.844,1.843-2.766,4.063-2.766,6.659v31.423c0,2.596,0.922,4.817,2.766,6.661c1.846,1.844,4.066,2.766,6.66,2.766H90.92
		c2.596,0,4.816-0.922,6.66-2.766s2.766-4.065,2.766-6.661V92.15C100.346,89.555,99.424,87.334,97.58,85.491L97.58,85.491z
		 M79.758,89.99h2.193v8.902c0,0.523,0.01,0.809,0.031,0.852c0.023,0.35,0.199,0.523,0.525,0.523c0.436,0,0.895-0.337,1.375-1.014
		V89.99h2.191v12.112h-2.191v-1.312c-0.896,0.982-1.734,1.474-2.521,1.474c-0.695,0-1.166-0.294-1.406-0.883
		c-0.131-0.394-0.197-0.994-0.197-1.801V89.99z M71.479,93.918c0-1.265,0.227-2.214,0.686-2.846c0.59-0.83,1.441-1.244,2.553-1.244
		c1.07,0,1.92,0.414,2.555,1.244c0.457,0.632,0.686,1.581,0.686,2.846v4.256c0,1.309-0.229,2.258-0.686,2.846
		c-0.635,0.832-1.484,1.245-2.555,1.245c-1.111,0-1.963-0.413-2.553-1.245c-0.459-0.631-0.686-1.58-0.686-2.846V93.918z
		 M65.586,85.834l1.734,6.383l1.668-6.383h2.457l-2.947,9.688v6.581h-2.422v-6.581c-0.238-1.199-0.742-2.924-1.504-5.169
		c-0.502-1.508-0.754-2.261-0.754-2.261l-0.787-2.258H65.586z M92.557,125.341c-0.219,0.938-0.682,1.735-1.391,2.391
		c-0.709,0.654-1.533,1.034-2.473,1.146c-2.988,0.327-7.484,0.49-13.484,0.49s-10.496-0.163-13.486-0.49
		c-0.938-0.111-1.762-0.491-2.469-1.146c-0.711-0.655-1.174-1.452-1.391-2.391c-0.438-1.834-0.656-4.671-0.656-8.511
		c0-3.774,0.219-6.611,0.656-8.51c0.217-0.96,0.68-1.761,1.391-2.406c0.707-0.645,1.543-1.021,2.502-1.129
		c2.969-0.328,7.453-0.492,13.453-0.492c6.023,0,10.52,0.164,13.484,0.492c0.939,0.107,1.768,0.484,2.488,1.129
		c0.719,0.646,1.189,1.445,1.408,2.406c0.414,1.812,0.621,4.646,0.621,8.51C93.211,120.67,92.994,123.507,92.557,125.341
		L92.557,125.341z M92.557,125.341"/>
	<path d="M59.891,110.776h2.553v13.846h2.422v-13.846h2.619v-2.292h-7.594V110.776z M59.891,110.776"/>
	<path d="M71.871,121.772c-0.48,0.677-0.939,1.015-1.375,1.015c-0.307,0-0.471-0.163-0.49-0.49
		c-0.025-0.043-0.035-0.328-0.035-0.852v-8.837h-2.158v9.491c0,0.829,0.064,1.42,0.195,1.766c0.195,0.614,0.656,0.92,1.375,0.92
		c0.807,0,1.637-0.492,2.488-1.474v1.308h2.189v-12.011h-2.189V121.772z M71.871,121.772"/>
	<path d="M80.35,112.443c-0.787,0-1.529,0.438-2.227,1.311v-5.27H75.93v16.138h2.193v-1.18c0.719,0.895,1.461,1.343,2.227,1.343
		c0.895,0,1.471-0.46,1.73-1.376c0.154-0.458,0.23-1.254,0.23-2.39v-4.778c0-1.156-0.076-1.963-0.23-2.423
		C81.82,112.902,81.244,112.443,80.35,112.443L80.35,112.443z M80.15,121.186c0,1.068-0.314,1.602-0.949,1.602
		c-0.371,0-0.729-0.174-1.078-0.523v-7.333c0.35-0.347,0.707-0.521,1.078-0.521c0.635,0,0.949,0.542,0.949,1.637V121.186z
		 M80.15,121.186"/>
	<path d="M88.301,121.167c0,0.229-0.006,0.41-0.018,0.542c-0.01,0.129-0.016,0.205-0.016,0.229c-0.131,0.564-0.457,0.85-0.982,0.85
		c-0.742,0-1.111-0.556-1.111-1.668v-2.128h4.352v-2.489c0-1.266-0.227-2.203-0.686-2.814c-0.59-0.828-1.439-1.244-2.555-1.244
		c-1.111,0-1.984,0.416-2.617,1.244c-0.438,0.591-0.654,1.528-0.654,2.814v4.224c0,1.287,0.229,2.228,0.688,2.815
		c0.633,0.829,1.516,1.244,2.65,1.244c1.158,0,2.029-0.438,2.619-1.31c0.262-0.394,0.426-0.829,0.49-1.31
		c0.045-0.307,0.066-0.775,0.066-1.407v-0.294h-2.227V121.167z M86.174,116.077c0-1.112,0.359-1.668,1.08-1.668
		s1.08,0.556,1.08,1.668v1.113h-2.16V116.077z M86.174,116.077"/>
	<path d="M74.717,100.268c0.699,0,1.047-0.556,1.047-1.669v-5.106c0-1.135-0.348-1.701-1.047-1.701
		c-0.697,0-1.047,0.566-1.047,1.701v5.106C73.67,99.712,74.02,100.268,74.717,100.268L74.717,100.268z M74.717,100.268"/>
</g>
<rect x="25" y="-95" width="54" height="54"/>
</svg>
