<?xml version="1.0" encoding="utf-8"?>
<!-- Generator: Adobe Illustrator 16.0.0, SVG Export Plug-In . SVG Version: 6.00 Build 0)  -->
<!DOCTYPE svg PUBLIC "-//W3C//DTD SVG 1.1//EN" "http://www.w3.org/Graphics/SVG/1.1/DTD/svg11.dtd">
<svg version="1.1" xmlns="http://www.w3.org/2000/svg" xmlns:xlink="http://www.w3.org/1999/xlink" x="0px" y="0px" width="50px"
	 height="50px" viewBox="0 0 50 50" enable-background="new 0 0 50 50" xml:space="preserve">
<g id="Footer">
	<g>
		<path fill="#FFFFFF" d="M25,20.522c2.47,0,4.479,2.009,4.479,4.479c0,0.355,0.289,0.646,0.645,0.646
			c0.357,0,0.646-0.29,0.646-0.646c0-3.182-2.589-5.77-5.77-5.77c-3.18,0-5.768,2.588-5.768,5.77c0,3.181,2.588,5.769,5.768,5.769
			c2.043,0,3.953-1.098,4.985-2.862c0.18-0.307,0.076-0.702-0.231-0.882c-0.309-0.18-0.703-0.076-0.883,0.231
			c-0.802,1.37-2.285,2.222-3.871,2.222c-2.469,0-4.478-2.008-4.478-4.478S22.531,20.522,25,20.522L25,20.522z M25,20.522"/>
		<path fill="#FFFFFF" d="M36.048,24.146c-0.404-5.384-4.769-9.765-10.15-10.19c-3.253-0.254-6.436,0.914-8.732,3.211
			c-2.295,2.297-3.464,5.479-3.209,8.731c0.423,5.362,4.785,9.725,10.146,10.147c0.296,0.022,0.591,0.034,0.884,0.034
			c2.939,0,5.761-1.155,7.849-3.243c0.25-0.254,0.25-0.662,0-0.914c-0.253-0.252-0.662-0.253-0.913,0
			c-2.029,2.029-4.842,3.063-7.718,2.836c-4.735-0.372-8.588-4.226-8.961-8.961c-0.227-2.875,0.807-5.689,2.836-7.718
			c2.028-2.028,4.841-3.063,7.717-2.836c4.753,0.375,8.606,4.244,8.964,8.999c0.049,0.651,0.034,1.307-0.043,1.946
			c-0.081,0.677-0.492,1.27-1.098,1.583c-0.548,0.283-1.164,0.28-1.689-0.004c-0.313-0.171-0.705-0.054-0.874,0.26
			c-0.171,0.313-0.054,0.706,0.259,0.875c0.907,0.492,1.964,0.498,2.896,0.015c0.987-0.509,1.655-1.472,1.788-2.575
			C36.085,25.619,36.102,24.882,36.048,24.146L36.048,24.146z M36.048,24.146"/>
	</g>
</g>
<g id="Header1">
</g>
<g id="Header2">
</g>
<g id="Header3">
</g>
<g id="Header4">
</g>
<g id="Header_Elements">
</g>
<g id="Main_-_PageTarifs">
</g>
<g id="Main_-_PageParcours2">
</g>
<g id="Main_-_PageParcours">
</g>
<g id="Main_-_HomePage">
</g>
<g id="Bandeau_alerte">
</g>
<g id="Logo_blanc" display="none">
</g>
<g id="Logo_couleurs">
</g>
<g id="Repères" display="none">
</g>
</svg>
