<?xml version="1.0" encoding="utf-8"?>
<!-- Generator: Adobe Illustrator 16.0.0, SVG Export Plug-In . SVG Version: 6.00 Build 0)  -->
<!DOCTYPE svg PUBLIC "-//W3C//DTD SVG 1.1//EN" "http://www.w3.org/Graphics/SVG/1.1/DTD/svg11.dtd">
<svg version="1.1" id="Calque_1" xmlns="http://www.w3.org/2000/svg" xmlns:xlink="http://www.w3.org/1999/xlink" x="0px" y="0px"
	 width="54px" height="54px" viewBox="0 0 54 54" enable-background="new 0 0 54 54" xml:space="preserve">
<g>
	<path fill="#FFFFFF" d="M49.25,4.691c-1.834-1.834-4.043-2.751-6.624-2.751H11.374c-2.58,0-4.788,0.917-6.624,2.751
		C2.917,6.524,2,8.733,2,11.314v31.251c0,2.581,0.917,4.791,2.75,6.625c1.835,1.833,4.044,2.75,6.624,2.75h31.252
		c2.581,0,4.79-0.917,6.624-2.75c1.833-1.834,2.75-4.044,2.75-6.625V11.314C52,8.733,51.083,6.524,49.25,4.691L49.25,4.691z
		 M31.524,9.166h2.182v8.854c0,0.521,0.01,0.805,0.031,0.848c0.023,0.348,0.198,0.521,0.522,0.521c0.434,0,0.89-0.336,1.367-1.009
		V9.166h2.18v12.046h-2.18v-1.304c-0.892,0.977-1.725,1.465-2.508,1.465c-0.691,0-1.159-0.292-1.398-0.878
		c-0.13-0.391-0.196-0.988-0.196-1.791V9.166z M23.291,13.072c0-1.258,0.225-2.201,0.682-2.83c0.587-0.825,1.434-1.237,2.539-1.237
		c1.064,0,1.909,0.412,2.541,1.237c0.455,0.629,0.682,1.572,0.682,2.83v4.232c0,1.302-0.227,2.246-0.682,2.83
		c-0.631,0.828-1.476,1.238-2.541,1.238c-1.105,0-1.952-0.41-2.539-1.238c-0.457-0.627-0.682-1.571-0.682-2.83V13.072z
		 M17.431,5.033l1.725,6.348l1.659-6.348h2.443l-2.931,9.634v6.545h-2.409v-6.545c-0.237-1.192-0.738-2.907-1.496-5.141
		c-0.499-1.499-0.75-2.248-0.75-2.248L14.89,5.033H17.431z M44.254,44.323c-0.218,0.934-0.678,1.726-1.384,2.378
		c-0.705,0.65-1.524,1.028-2.459,1.139c-2.972,0.325-7.443,0.487-13.41,0.487c-5.967,0-10.438-0.162-13.413-0.487
		c-0.932-0.11-1.752-0.488-2.455-1.139c-0.707-0.652-1.167-1.444-1.383-2.378c-0.436-1.824-0.653-4.646-0.653-8.464
		c0-3.754,0.217-6.575,0.653-8.464c0.215-0.954,0.676-1.751,1.383-2.393c0.703-0.641,1.535-1.016,2.488-1.123
		c2.953-0.326,7.412-0.489,13.379-0.489c5.99,0,10.462,0.163,13.41,0.489c0.935,0.107,1.758,0.482,2.475,1.123
		c0.715,0.642,1.184,1.438,1.4,2.393c0.412,1.802,0.618,4.621,0.618,8.464C44.904,39.678,44.688,42.499,44.254,44.323L44.254,44.323
		z M44.254,44.323"/>
	<path fill="#FFFFFF" d="M11.767,29.839h2.539v13.77h2.409v-13.77h2.605V27.56h-7.552V29.839z M11.767,29.839"/>
	<path fill="#FFFFFF" d="M23.681,40.774c-0.478,0.673-0.934,1.009-1.367,1.009c-0.305,0-0.468-0.162-0.488-0.487
		c-0.025-0.043-0.035-0.326-0.035-0.847V31.66h-2.146V41.1c0,0.824,0.064,1.412,0.194,1.756c0.194,0.611,0.652,0.915,1.367,0.915
		c0.802,0,1.628-0.489,2.475-1.466v1.301h2.178V31.66h-2.178V40.774z M23.681,40.774"/>
	<path fill="#FFFFFF" d="M32.113,31.496c-0.782,0-1.521,0.436-2.214,1.304v-5.24h-2.181v16.049h2.181v-1.173
		c0.715,0.89,1.453,1.335,2.214,1.335c0.89,0,1.463-0.457,1.721-1.368c0.154-0.456,0.229-1.247,0.229-2.377v-4.752
		c0-1.15-0.075-1.952-0.229-2.409C33.576,31.953,33.003,31.496,32.113,31.496L32.113,31.496z M31.915,40.19
		c0,1.063-0.313,1.593-0.944,1.593c-0.369,0-0.725-0.173-1.072-0.521V33.97c0.348-0.345,0.703-0.519,1.072-0.519
		c0.631,0,0.944,0.539,0.944,1.628V40.19z M31.915,40.19"/>
	<path fill="#FFFFFF" d="M40.021,40.172c0,0.229-0.006,0.408-0.018,0.539c-0.01,0.129-0.016,0.204-0.016,0.228
		c-0.131,0.562-0.455,0.845-0.978,0.845c-0.738,0-1.105-0.553-1.105-1.658v-2.116h4.328v-2.476c0-1.259-0.226-2.191-0.682-2.8
		c-0.587-0.823-1.432-1.237-2.541-1.237c-1.105,0-1.974,0.414-2.603,1.237c-0.436,0.588-0.65,1.521-0.65,2.8v4.2
		c0,1.28,0.227,2.215,0.684,2.8c0.629,0.824,1.507,1.237,2.636,1.237c1.151,0,2.018-0.435,2.604-1.303
		c0.261-0.391,0.424-0.824,0.487-1.302c0.045-0.306,0.066-0.771,0.066-1.399v-0.293h-2.214V40.172z M37.905,35.11
		c0-1.106,0.357-1.659,1.074-1.659s1.074,0.553,1.074,1.659v1.107h-2.148V35.11z M37.905,35.11"/>
	<path fill="#FFFFFF" d="M26.512,19.388c0.695,0,1.041-0.553,1.041-1.66v-5.078c0-1.129-0.346-1.692-1.041-1.692
		c-0.694,0-1.042,0.563-1.042,1.692v5.078C25.47,18.835,25.818,19.388,26.512,19.388L26.512,19.388z M26.512,19.388"/>
</g>
<rect x="25" y="-95" width="54" height="54"/>
</svg>
